<svg xmlns="http://www.w3.org/2000/svg" width="285" height="285" viewBox="0 0 285 285" version="1.1"><path d="M 159.659 50.487 C 156.439 59.938, 153.515 63.633, 146.742 66.814 C 143.309 68.426, 139.403 70.173, 138.062 70.696 C 135.794 71.581, 136.002 71.768, 141.062 73.395 C 151.738 76.828, 156.124 81.468, 160 93.429 L 161.273 97.358 163.576 90.999 C 167.358 80.554, 170.553 77.358, 180.994 73.578 L 187.349 71.277 181.925 69.532 C 175.291 67.398, 169.604 63.852, 167.385 60.465 C 166.470 59.068, 164.725 55.174, 163.507 51.810 L 161.292 45.694 159.659 50.487 M 72.223 64.557 C 69.583 66.405, 69.239 71.096, 71.571 73.429 C 73.904 75.761, 78.595 75.417, 80.443 72.777 C 82.538 69.786, 82.403 67.403, 80 65 C 77.597 62.597, 75.214 62.462, 72.223 64.557 M 238.655 80.829 C 235.033 84.831, 237.833 91, 243.272 91 C 246.073 91, 249 87.820, 249 84.777 C 249 82.256, 245.425 79, 242.655 79 C 241.365 79, 239.565 79.823, 238.655 80.829 M 97.523 101.931 C 92.553 116.854, 86.119 123.159, 70.984 127.936 C 67.062 129.174, 64.092 130.425, 64.384 130.717 C 64.675 131.009, 68.196 132.340, 72.207 133.675 C 86.073 138.291, 93.074 145.247, 97.315 158.623 C 98.517 162.414, 99.862 165.737, 100.304 166.008 C 100.746 166.279, 102.232 163.125, 103.605 159 C 108.318 144.846, 114.794 138.335, 128.793 133.675 C 132.804 132.340, 136.319 131.015, 136.603 130.730 C 136.888 130.445, 134.088 129.233, 130.381 128.035 C 114.034 122.754, 108.059 116.870, 103.433 101.500 C 102.440 98.200, 101.311 95.123, 100.925 94.662 C 100.539 94.200, 99.008 97.472, 97.523 101.931 M 215 98 C 212.597 100.403, 212.462 102.786, 214.557 105.777 C 216.479 108.522, 221.033 108.726, 223.345 106.171 C 228.607 100.357, 220.541 92.459, 215 98 M 232.571 127.571 C 228.969 131.174, 232.013 138, 237.223 138 C 239.744 138, 243 134.425, 243 131.655 C 243 126.834, 236.036 124.107, 232.571 127.571 M 187.842 144.508 C 187.525 145.054, 186.482 147.904, 185.522 150.841 C 184.563 153.779, 182.369 157.788, 180.647 159.750 C 177.554 163.272, 169.093 167.971, 165.809 167.990 C 162.027 168.012, 163.341 169.880, 168.260 171.477 C 178.530 174.811, 183.056 179.454, 186.072 189.750 C 186.756 192.088, 187.613 194, 187.976 194 C 188.338 194, 189.449 191.412, 190.443 188.250 C 192.859 180.570, 198.418 175.027, 206.731 172.008 C 212.308 169.983, 214.185 168, 210.524 168 C 208.160 168, 199.594 163.953, 197.153 161.683 C 194.381 159.105, 191.224 153.213, 189.588 147.563 C 188.944 145.337, 188.158 143.963, 187.842 144.508 M 46.242 175.102 C 42.740 176.404, 41.350 180.359, 43.332 183.383 C 46.907 188.840, 54 186.990, 54 180.599 C 54 175.939, 50.556 173.498, 46.242 175.102 M 59.655 200.829 C 58.745 201.835, 58 203.635, 58 204.829 C 58 207.452, 61.322 211, 63.777 211 C 66.916 211, 70 208.075, 70 205.098 C 70 199.734, 63.189 196.923, 59.655 200.829 M 123.489 200.500 C 121.515 206.337, 120.620 207.990, 118.148 210.359 C 116.659 211.785, 113.675 213.563, 111.518 214.310 L 107.595 215.668 113.336 218.296 C 118.501 220.661, 119.333 221.486, 121.643 226.532 L 124.210 232.139 126.480 227.241 C 128.529 222.818, 133.008 218, 135.070 218 C 135.510 218, 137.137 217.509, 138.685 216.909 L 141.500 215.818 136.388 213.891 C 130.266 211.582, 128.485 209.772, 126.028 203.361 C 124.500 199.375, 124.043 198.860, 123.489 200.500 M 208.357 218.577 C 204.729 224.115, 210.885 230.271, 216.423 226.643 C 219.418 224.680, 219.929 220.072, 217.429 217.571 C 214.928 215.071, 210.320 215.582, 208.357 218.577" stroke="none" fill="#f6f5f8" fill-rule="evenodd"/><path d="M 130 0.593 C 119.717 1.820, 106.471 4.582, 98.500 7.163 C 67.794 17.103, 41.167 37.685, 23.075 65.464 C 0.839 99.607, -5.193 142.504, 6.479 183.500 C 9.891 195.482, 20.462 216.474, 28.412 227.050 C 48.967 254.396, 79.552 274.088, 113 281.511 C 124.244 284.006, 153.985 284.651, 165.500 282.648 C 187.351 278.849, 210.635 269.004, 227 256.645 C 237.635 248.613, 252.858 232.897, 259.757 222.826 C 270.979 206.446, 279.634 185.034, 282.464 166.652 C 286.031 143.487, 286.321 140.225, 285.206 135.822 C 284.604 133.445, 283.860 128.575, 283.553 125 C 282.799 116.217, 278.797 100.067, 274.983 90.416 C 257.214 45.460, 217.468 12.321, 170.036 2.916 C 160.863 1.097, 137.258 -0.272, 130 0.593 M 159.659 50.487 C 156.439 59.938, 153.515 63.633, 146.742 66.814 C 143.309 68.426, 139.403 70.173, 138.062 70.696 C 135.794 71.581, 136.002 71.768, 141.062 73.395 C 151.738 76.828, 156.124 81.468, 160 93.429 L 161.273 97.358 163.576 90.999 C 167.358 80.554, 170.553 77.358, 180.994 73.578 L 187.349 71.277 181.925 69.532 C 175.291 67.398, 169.604 63.852, 167.385 60.465 C 166.470 59.068, 164.725 55.174, 163.507 51.810 L 161.292 45.694 159.659 50.487 M 72.223 64.557 C 69.583 66.405, 69.239 71.096, 71.571 73.429 C 73.904 75.761, 78.595 75.417, 80.443 72.777 C 82.538 69.786, 82.403 67.403, 80 65 C 77.597 62.597, 75.214 62.462, 72.223 64.557 M 238.655 80.829 C 235.033 84.831, 237.833 91, 243.272 91 C 246.073 91, 249 87.820, 249 84.777 C 249 82.256, 245.425 79, 242.655 79 C 241.365 79, 239.565 79.823, 238.655 80.829 M 97.523 101.931 C 92.553 116.854, 86.119 123.159, 70.984 127.936 C 67.062 129.174, 64.092 130.425, 64.384 130.717 C 64.675 131.009, 68.196 132.340, 72.207 133.675 C 86.073 138.291, 93.074 145.247, 97.315 158.623 C 98.517 162.414, 99.862 165.737, 100.304 166.008 C 100.746 166.279, 102.232 163.125, 103.605 159 C 108.318 144.846, 114.794 138.335, 128.793 133.675 C 132.804 132.340, 136.319 131.015, 136.603 130.730 C 136.888 130.445, 134.088 129.233, 130.381 128.035 C 114.034 122.754, 108.059 116.870, 103.433 101.500 C 102.440 98.200, 101.311 95.123, 100.925 94.662 C 100.539 94.200, 99.008 97.472, 97.523 101.931 M 215 98 C 212.597 100.403, 212.462 102.786, 214.557 105.777 C 216.479 108.522, 221.033 108.726, 223.345 106.171 C 228.607 100.357, 220.541 92.459, 215 98 M 232.571 127.571 C 228.969 131.174, 232.013 138, 237.223 138 C 239.744 138, 243 134.425, 243 131.655 C 243 126.834, 236.036 124.107, 232.571 127.571 M 0.286 142.500 C 0.294 145.250, 0.488 146.256, 0.718 144.736 C 0.947 143.216, 0.941 140.966, 0.704 139.736 C 0.467 138.506, 0.279 139.750, 0.286 142.500 M 187.842 144.508 C 187.525 145.054, 186.482 147.904, 185.522 150.841 C 184.563 153.779, 182.369 157.788, 180.647 159.750 C 177.554 163.272, 169.093 167.971, 165.809 167.990 C 162.027 168.012, 163.341 169.880, 168.260 171.477 C 178.530 174.811, 183.056 179.454, 186.072 189.750 C 186.756 192.088, 187.613 194, 187.976 194 C 188.338 194, 189.449 191.412, 190.443 188.250 C 192.859 180.570, 198.418 175.027, 206.731 172.008 C 212.308 169.983, 214.185 168, 210.524 168 C 208.160 168, 199.594 163.953, 197.153 161.683 C 194.381 159.105, 191.224 153.213, 189.588 147.563 C 188.944 145.337, 188.158 143.963, 187.842 144.508 M 46.242 175.102 C 42.740 176.404, 41.350 180.359, 43.332 183.383 C 46.907 188.840, 54 186.990, 54 180.599 C 54 175.939, 50.556 173.498, 46.242 175.102 M 59.655 200.829 C 58.745 201.835, 58 203.635, 58 204.829 C 58 207.452, 61.322 211, 63.777 211 C 66.916 211, 70 208.075, 70 205.098 C 70 199.734, 63.189 196.923, 59.655 200.829 M 123.489 200.500 C 121.515 206.337, 120.620 207.990, 118.148 210.359 C 116.659 211.785, 113.675 213.563, 111.518 214.310 L 107.595 215.668 113.336 218.296 C 118.501 220.661, 119.333 221.486, 121.643 226.532 L 124.210 232.139 126.480 227.241 C 128.529 222.818, 133.008 218, 135.070 218 C 135.510 218, 137.137 217.509, 138.685 216.909 L 141.500 215.818 136.388 213.891 C 130.266 211.582, 128.485 209.772, 126.028 203.361 C 124.500 199.375, 124.043 198.860, 123.489 200.500 M 208.357 218.577 C 204.729 224.115, 210.885 230.271, 216.423 226.643 C 219.418 224.680, 219.929 220.072, 217.429 217.571 C 214.928 215.071, 210.320 215.582, 208.357 218.577" stroke="none" fill="#452879" fill-rule="evenodd"/></svg>