<?xml version="1.0" standalone="no"?>
<!DOCTYPE svg PUBLIC "-//W3C//DTD SVG 20010904//EN"
 "http://www.w3.org/TR/2001/REC-SVG-20010904/DTD/svg10.dtd">
<svg version="1.0" xmlns="http://www.w3.org/2000/svg"
 width="285.000000pt" height="285.000000pt" viewBox="0 0 285.000000 285.000000"
 preserveAspectRatio="xMidYMid meet">

<g transform="translate(0.000000,285.000000) scale(0.100000,-0.100000)"
fill="currentColor" stroke="none">
<path d="M1195 2825 c-536 -95 -959 -462 -1118 -971 -50 -160 -62 -237 -62
-424 0 -252 35 -408 140 -625 188 -389 553 -673 985 -766 150 -32 419 -33 567
-1 445 96 803 376 994 776 106 222 144 411 136 661 -7 187 -32 312 -97 478
-144 369 -459 673 -835 807 -163 58 -242 71 -445 75 -131 3 -208 0 -265 -10z
m450 -519 c25 -71 78 -119 161 -146 54 -18 64 -25 49 -31 -11 -4 -42 -15 -68
-24 -83 -30 -127 -80 -157 -182 -13 -41 -30 -50 -30 -15 0 9 -13 45 -29 79
-33 69 -71 100 -159 128 -49 16 -62 35 -23 35 10 0 46 14 79 31 65 32 98 73
123 150 21 67 20 66 29 44 4 -11 16 -42 25 -69z m-845 -106 c39 -39 14 -100
-41 -100 -56 0 -82 73 -37 104 30 21 54 20 78 -4z m1670 -160 c24 -24 25 -48
4 -78 -30 -43 -104 -17 -104 36 0 56 61 81 100 42z m-1434 -210 c44 -141 106
-204 243 -250 42 -14 77 -30 79 -35 2 -5 -25 -19 -60 -31 -159 -54 -220 -116
-268 -274 -9 -30 -20 -55 -25 -55 -5 0 -16 25 -25 55 -47 157 -114 225 -270
275 -30 10 -59 21 -63 25 -5 4 27 20 71 34 146 49 209 110 252 244 12 37 24
73 26 81 7 22 16 6 40 -69z m1196 43 c39 -35 11 -103 -43 -103 -29 0 -59 31
-59 60 0 50 64 78 102 43z m180 -300 c24 -21 23 -58 -2 -83 -24 -24 -48 -25
-78 -4 -26 18 -30 65 -6 88 20 21 63 20 86 -1z m-512 -205 c31 -106 84 -162
175 -188 25 -7 48 -16 50 -20 3 -4 -22 -17 -55 -29 -97 -36 -131 -72 -170
-185 -11 -32 -20 -45 -24 -36 -3 8 -15 41 -26 72 -26 71 -77 119 -160 149 -33
12 -57 25 -53 29 4 4 33 15 63 25 75 24 130 82 156 163 10 34 22 62 25 62 3 0
12 -19 19 -42z m-1372 -280 c21 -18 15 -75 -10 -92 -30 -21 -50 -20 -76 4 -60
56 22 139 86 88z m156 -244 c34 -33 8 -104 -38 -104 -56 0 -86 62 -49 102 20
22 66 24 87 2z m612 -95 c9 -10 39 -27 67 -37 53 -20 53 -23 -4 -41 -46 -15
-75 -46 -99 -107 -15 -40 -20 -45 -25 -29 -3 11 -16 40 -28 65 -19 38 -30 48
-74 65 -29 11 -53 23 -53 26 0 4 20 14 45 23 40 16 95 65 95 86 0 5 5 21 11
37 l11 28 18 -49 c11 -26 27 -57 36 -67z m882 -71 c7 -7 12 -25 12 -42 0 -59
-59 -87 -100 -46 -24 24 -26 57 -3 82 18 20 73 24 91 6z"/>
</g>
</svg>
